<mxfile host="Electron" modified="2024-04-18T06:29:31.066Z" agent="Mozilla/5.0 (Windows NT 10.0; Win64; x64) AppleWebKit/537.36 (KHTML, like Gecko) draw.io/24.2.5 Chrome/120.0.6099.109 Electron/28.1.0 Safari/537.36" etag="pgarmc1OZ5Y4RMCY8ik4" version="24.2.5" type="device">
  <diagram name="Strona-1" id="xCCsqhU6PNBuaq4Lg01Y">
    <mxGraphModel dx="1138" dy="711" grid="1" gridSize="10" guides="1" tooltips="1" connect="1" arrows="1" fold="1" page="1" pageScale="1" pageWidth="827" pageHeight="1169" math="0" shadow="0">
      <root>
        <mxCell id="0" />
        <mxCell id="1" parent="0" />
        <mxCell id="QSrHf1Xs9_2Yq39z9kyF-6" style="edgeStyle=orthogonalEdgeStyle;rounded=0;orthogonalLoop=1;jettySize=auto;html=1;exitX=1;exitY=0.5;exitDx=0;exitDy=0;entryX=0;entryY=0.5;entryDx=0;entryDy=0;" edge="1" parent="1" source="QSrHf1Xs9_2Yq39z9kyF-4" target="QSrHf1Xs9_2Yq39z9kyF-1">
          <mxGeometry relative="1" as="geometry" />
        </mxCell>
        <mxCell id="QSrHf1Xs9_2Yq39z9kyF-16" style="edgeStyle=orthogonalEdgeStyle;rounded=0;orthogonalLoop=1;jettySize=auto;html=1;exitX=0.5;exitY=1;exitDx=0;exitDy=0;entryX=0.5;entryY=1;entryDx=0;entryDy=0;startArrow=classic;startFill=1;endArrow=none;endFill=0;dashed=1;" edge="1" parent="1" source="QSrHf1Xs9_2Yq39z9kyF-4" target="QSrHf1Xs9_2Yq39z9kyF-12">
          <mxGeometry relative="1" as="geometry">
            <Array as="points">
              <mxPoint x="160" y="360" />
              <mxPoint x="680" y="360" />
            </Array>
          </mxGeometry>
        </mxCell>
        <mxCell id="QSrHf1Xs9_2Yq39z9kyF-4" value="Wizjonerskie przywództwo" style="rounded=1;whiteSpace=wrap;html=1;" vertex="1" parent="1">
          <mxGeometry x="120" y="190" width="80" height="60" as="geometry" />
        </mxCell>
        <mxCell id="QSrHf1Xs9_2Yq39z9kyF-5" value="" style="group" vertex="1" connectable="0" parent="1">
          <mxGeometry x="240" y="120" width="100" height="200" as="geometry" />
        </mxCell>
        <mxCell id="QSrHf1Xs9_2Yq39z9kyF-17" style="edgeStyle=orthogonalEdgeStyle;rounded=0;orthogonalLoop=1;jettySize=auto;html=1;exitX=0.75;exitY=1;exitDx=0;exitDy=0;dashed=1;startArrow=classic;startFill=1;endArrow=none;endFill=0;" edge="1" parent="QSrHf1Xs9_2Yq39z9kyF-5" source="QSrHf1Xs9_2Yq39z9kyF-1">
          <mxGeometry relative="1" as="geometry">
            <mxPoint x="75" y="240" as="targetPoint" />
          </mxGeometry>
        </mxCell>
        <mxCell id="QSrHf1Xs9_2Yq39z9kyF-18" style="edgeStyle=orthogonalEdgeStyle;rounded=0;orthogonalLoop=1;jettySize=auto;html=1;exitX=0.25;exitY=1;exitDx=0;exitDy=0;dashed=1;" edge="1" parent="QSrHf1Xs9_2Yq39z9kyF-5" source="QSrHf1Xs9_2Yq39z9kyF-1">
          <mxGeometry relative="1" as="geometry">
            <mxPoint x="25" y="240" as="targetPoint" />
          </mxGeometry>
        </mxCell>
        <mxCell id="QSrHf1Xs9_2Yq39z9kyF-1" value="&lt;i&gt;System organizacyjny&lt;/i&gt;" style="rounded=0;whiteSpace=wrap;html=1;" vertex="1" parent="QSrHf1Xs9_2Yq39z9kyF-5">
          <mxGeometry width="100" height="200" as="geometry" />
        </mxCell>
        <mxCell id="QSrHf1Xs9_2Yq39z9kyF-2" value="Współpraca wewnętrzna&lt;br&gt;i zewnętrzna" style="rounded=1;whiteSpace=wrap;html=1;" vertex="1" parent="QSrHf1Xs9_2Yq39z9kyF-5">
          <mxGeometry x="10" y="10" width="80" height="60" as="geometry" />
        </mxCell>
        <mxCell id="QSrHf1Xs9_2Yq39z9kyF-3" value="Uczenie się" style="rounded=1;whiteSpace=wrap;html=1;" vertex="1" parent="QSrHf1Xs9_2Yq39z9kyF-5">
          <mxGeometry x="10" y="130" width="80" height="60" as="geometry" />
        </mxCell>
        <mxCell id="QSrHf1Xs9_2Yq39z9kyF-14" style="edgeStyle=orthogonalEdgeStyle;rounded=0;orthogonalLoop=1;jettySize=auto;html=1;exitX=1;exitY=0.5;exitDx=0;exitDy=0;entryX=0;entryY=0.5;entryDx=0;entryDy=0;" edge="1" parent="1" source="QSrHf1Xs9_2Yq39z9kyF-7" target="QSrHf1Xs9_2Yq39z9kyF-9">
          <mxGeometry relative="1" as="geometry" />
        </mxCell>
        <mxCell id="QSrHf1Xs9_2Yq39z9kyF-19" style="edgeStyle=orthogonalEdgeStyle;rounded=0;orthogonalLoop=1;jettySize=auto;html=1;exitX=0.75;exitY=1;exitDx=0;exitDy=0;startArrow=classic;startFill=1;endArrow=none;endFill=0;dashed=1;" edge="1" parent="1" source="QSrHf1Xs9_2Yq39z9kyF-7">
          <mxGeometry relative="1" as="geometry">
            <mxPoint x="440" y="360" as="targetPoint" />
          </mxGeometry>
        </mxCell>
        <mxCell id="QSrHf1Xs9_2Yq39z9kyF-20" style="edgeStyle=orthogonalEdgeStyle;rounded=0;orthogonalLoop=1;jettySize=auto;html=1;exitX=0.25;exitY=1;exitDx=0;exitDy=0;dashed=1;" edge="1" parent="1" source="QSrHf1Xs9_2Yq39z9kyF-7">
          <mxGeometry relative="1" as="geometry">
            <mxPoint x="400" y="360" as="targetPoint" />
          </mxGeometry>
        </mxCell>
        <mxCell id="QSrHf1Xs9_2Yq39z9kyF-7" value="Zarządzanie procesami" style="rounded=1;whiteSpace=wrap;html=1;" vertex="1" parent="1">
          <mxGeometry x="380" y="190" width="80" height="60" as="geometry" />
        </mxCell>
        <mxCell id="QSrHf1Xs9_2Yq39z9kyF-8" value="" style="group" vertex="1" connectable="0" parent="1">
          <mxGeometry x="500" y="120" width="100" height="200" as="geometry" />
        </mxCell>
        <mxCell id="QSrHf1Xs9_2Yq39z9kyF-21" style="edgeStyle=orthogonalEdgeStyle;rounded=0;orthogonalLoop=1;jettySize=auto;html=1;exitX=0.75;exitY=1;exitDx=0;exitDy=0;dashed=1;startArrow=classic;startFill=1;endArrow=none;endFill=0;" edge="1" parent="QSrHf1Xs9_2Yq39z9kyF-8" source="QSrHf1Xs9_2Yq39z9kyF-9">
          <mxGeometry relative="1" as="geometry">
            <mxPoint x="75" y="240" as="targetPoint" />
          </mxGeometry>
        </mxCell>
        <mxCell id="QSrHf1Xs9_2Yq39z9kyF-22" style="edgeStyle=orthogonalEdgeStyle;rounded=0;orthogonalLoop=1;jettySize=auto;html=1;exitX=0.25;exitY=1;exitDx=0;exitDy=0;dashed=1;" edge="1" parent="QSrHf1Xs9_2Yq39z9kyF-8" source="QSrHf1Xs9_2Yq39z9kyF-9">
          <mxGeometry relative="1" as="geometry">
            <mxPoint x="25" y="240" as="targetPoint" />
          </mxGeometry>
        </mxCell>
        <mxCell id="QSrHf1Xs9_2Yq39z9kyF-9" value="&lt;i&gt;Efekty procesu&lt;/i&gt;" style="rounded=0;whiteSpace=wrap;html=1;" vertex="1" parent="QSrHf1Xs9_2Yq39z9kyF-8">
          <mxGeometry width="100" height="200" as="geometry" />
        </mxCell>
        <mxCell id="QSrHf1Xs9_2Yq39z9kyF-10" value="Ciągłe doskonalenie" style="rounded=1;whiteSpace=wrap;html=1;" vertex="1" parent="QSrHf1Xs9_2Yq39z9kyF-8">
          <mxGeometry x="10" y="10" width="80" height="60" as="geometry" />
        </mxCell>
        <mxCell id="QSrHf1Xs9_2Yq39z9kyF-11" value="Spełnianie się pracowników" style="rounded=1;whiteSpace=wrap;html=1;" vertex="1" parent="QSrHf1Xs9_2Yq39z9kyF-8">
          <mxGeometry x="10" y="130" width="80" height="60" as="geometry" />
        </mxCell>
        <mxCell id="QSrHf1Xs9_2Yq39z9kyF-23" style="edgeStyle=orthogonalEdgeStyle;rounded=0;orthogonalLoop=1;jettySize=auto;html=1;exitX=0.5;exitY=1;exitDx=0;exitDy=0;dashed=1;" edge="1" parent="1" source="QSrHf1Xs9_2Yq39z9kyF-12">
          <mxGeometry relative="1" as="geometry">
            <mxPoint x="680" y="360" as="targetPoint" />
          </mxGeometry>
        </mxCell>
        <mxCell id="QSrHf1Xs9_2Yq39z9kyF-12" value="Satysfakcja klientów" style="rounded=1;whiteSpace=wrap;html=1;" vertex="1" parent="1">
          <mxGeometry x="640" y="190" width="80" height="60" as="geometry" />
        </mxCell>
        <mxCell id="QSrHf1Xs9_2Yq39z9kyF-13" style="edgeStyle=orthogonalEdgeStyle;rounded=0;orthogonalLoop=1;jettySize=auto;html=1;exitX=1;exitY=0.5;exitDx=0;exitDy=0;entryX=0;entryY=0.5;entryDx=0;entryDy=0;" edge="1" parent="1" source="QSrHf1Xs9_2Yq39z9kyF-1" target="QSrHf1Xs9_2Yq39z9kyF-7">
          <mxGeometry relative="1" as="geometry" />
        </mxCell>
        <mxCell id="QSrHf1Xs9_2Yq39z9kyF-15" style="edgeStyle=orthogonalEdgeStyle;rounded=0;orthogonalLoop=1;jettySize=auto;html=1;exitX=1;exitY=0.5;exitDx=0;exitDy=0;" edge="1" parent="1" source="QSrHf1Xs9_2Yq39z9kyF-9" target="QSrHf1Xs9_2Yq39z9kyF-12">
          <mxGeometry relative="1" as="geometry" />
        </mxCell>
        <mxCell id="QSrHf1Xs9_2Yq39z9kyF-24" value="" style="endArrow=classic;html=1;rounded=0;dashed=1;" edge="1" parent="1">
          <mxGeometry width="50" height="50" relative="1" as="geometry">
            <mxPoint x="460" y="400" as="sourcePoint" />
            <mxPoint x="500" y="400" as="targetPoint" />
            <Array as="points">
              <mxPoint x="460" y="400" />
            </Array>
          </mxGeometry>
        </mxCell>
        <mxCell id="QSrHf1Xs9_2Yq39z9kyF-27" value="mechanizm infromacji zwrotnej" style="edgeLabel;html=1;align=center;verticalAlign=middle;resizable=0;points=[];" vertex="1" connectable="0" parent="QSrHf1Xs9_2Yq39z9kyF-24">
          <mxGeometry relative="1" as="geometry">
            <mxPoint x="100" as="offset" />
          </mxGeometry>
        </mxCell>
        <mxCell id="QSrHf1Xs9_2Yq39z9kyF-25" value="" style="endArrow=classic;html=1;rounded=0;" edge="1" parent="1">
          <mxGeometry width="50" height="50" relative="1" as="geometry">
            <mxPoint x="180" y="400" as="sourcePoint" />
            <mxPoint x="220" y="400" as="targetPoint" />
          </mxGeometry>
        </mxCell>
        <mxCell id="QSrHf1Xs9_2Yq39z9kyF-26" value="kierunek relacji przyczynowo-skutkowej" style="edgeLabel;html=1;align=center;verticalAlign=middle;resizable=0;points=[];" vertex="1" connectable="0" parent="QSrHf1Xs9_2Yq39z9kyF-25">
          <mxGeometry relative="1" as="geometry">
            <mxPoint x="120" as="offset" />
          </mxGeometry>
        </mxCell>
      </root>
    </mxGraphModel>
  </diagram>
</mxfile>
